<mxfile host="app.diagrams.net" modified="2024-08-15T04:36:04.600Z" agent="Mozilla/5.0 (Macintosh; Intel Mac OS X 10_15_7) AppleWebKit/537.36 (KHTML, like Gecko) Chrome/126.0.0.0 Safari/537.36" version="24.6.3" etag="Bis13EgI9_TyvXnWcgcr" type="github">
  <diagram name="Page-1" id="T2NFkLZa_9hnbuNvp7E_">
    <mxGraphModel>
      <root>
        <mxCell id="0" />
        <mxCell id="1" parent="0" />
      </root>
    </mxGraphModel>
  </diagram>
</mxfile>
